HIERARCHY
ROOT Hips
{
	OFFSET 0.000000 0.000000 0.000000
	CHANNELS 6 Xposition Yposition Zposition Xrotation Yrotation Zrotation
	JOINT LeftUpLeg_virtual
	{
		OFFSET 0.000000 0.000000 0.000000
		CHANNELS 3 Xrotation Yrotation Zrotation
		JOINT LeftUpLeg
		{
			OFFSET 13.026900 -6.336304 -1.092800
			CHANNELS 3 Xrotation Yrotation Zrotation
			JOINT LeftLeg
			{
				OFFSET 0.524474 -46.096886 9.782700
				CHANNELS 3 Xrotation Yrotation Zrotation
				JOINT LeftFoot
				{
					OFFSET -0.524474 -53.427422 -12.948200
					CHANNELS 3 Xrotation Yrotation Zrotation
					JOINT LeftToeBase
					{
						OFFSET 0.192200 -14.009700 16.364100
						CHANNELS 3 Xrotation Yrotation Zrotation
						JOINT LeftToe_End
						{
							OFFSET -1.784700 -0.561700 9.474800
							CHANNELS 3 Xrotation Yrotation Zrotation
							End Site
							{
								OFFSET 0 0 0
							}
						}
					}
				}
			}
		}
	}
	JOINT RightUpLeg_virtual
	{
		OFFSET 0.000000 0.000000 0.000000
		CHANNELS 3 Xrotation Yrotation Zrotation
		JOINT RightUpLeg
		{
			OFFSET -12.883000 -6.336304 -1.092800
			CHANNELS 3 Xrotation Yrotation Zrotation
			JOINT RightLeg
			{
				OFFSET -0.524587 -46.096825 9.782800
				CHANNELS 3 Xrotation Yrotation Zrotation
				JOINT RightFoot
				{
					OFFSET 0.524587 -53.427383 -12.948300
					CHANNELS 3 Xrotation Yrotation Zrotation
					JOINT RightToeBase
					{
						OFFSET -0.192200 -14.009700 16.364100
						CHANNELS 3 Xrotation Yrotation Zrotation
						JOINT RightToe_End
						{
							OFFSET 1.784700 -0.561700 9.474800
							CHANNELS 3 Xrotation Yrotation Zrotation
							End Site
							{
								OFFSET 0 0 0
							}
						}
					}
				}
			}
		}
	}
	JOINT Spine_virtual
	{
		OFFSET 0.000000 0.000000 0.000000
		CHANNELS 3 Xrotation Yrotation Zrotation
		JOINT Spine
		{
			OFFSET 0.072000 7.257294 -0.789700
			CHANNELS 3 Xrotation Yrotation Zrotation
			JOINT Spine1
			{
				OFFSET 0.000000 12.508769 -0.658067
				CHANNELS 3 Xrotation Yrotation Zrotation
				JOINT Spine1_split
				{
					OFFSET 0.000000 12.508769 -0.658067
					CHANNELS 3 Xrotation Yrotation Zrotation
					JOINT Spine2
					{
						OFFSET 0.000000 12.508769 -0.658067
						CHANNELS 3 Xrotation Yrotation Zrotation
						JOINT Neck_virtual
						{
							OFFSET 0.000000 0.000000 0.000000
							CHANNELS 3 Xrotation Yrotation Zrotation
							JOINT Neck
							{
								OFFSET 0.000000 14.033295 7.520400
								CHANNELS 3 Xrotation Yrotation Zrotation
								JOINT Head
								{
									OFFSET 0.000000 8.198502 5.703100
									CHANNELS 3 Xrotation Yrotation Zrotation
									JOINT HeadTop_End
									{
										OFFSET 0.000000 17.760803 13.332701
										CHANNELS 3 Xrotation Yrotation Zrotation
										End Site
										{
											OFFSET 0 0 0
										}
									}
								}
							}
						}
						JOINT LeftShoulder_virtual
						{
							OFFSET 0.000000 0.000000 0.000000
							CHANNELS 3 Xrotation Yrotation Zrotation
							JOINT LeftShoulder
							{
								OFFSET 6.292450 5.785301 -0.669000
								CHANNELS 3 Xrotation Yrotation Zrotation
								JOINT LeftShoulder_split
								{
									OFFSET 6.292450 5.785301 -0.669000
									CHANNELS 3 Xrotation Yrotation Zrotation
									JOINT LeftArm
									{
										OFFSET 13.907140 -6.093903 1.965100
										CHANNELS 3 Xrotation Yrotation Zrotation
										JOINT LeftForeArm
										{
											OFFSET 34.140198 0.000000 0.000000
											CHANNELS 3 Xrotation Yrotation Zrotation
											JOINT LeftHand
											{
												OFFSET 40.960209 0.000000 0.000000
												CHANNELS 3 Xrotation Yrotation Zrotation
												End Site
												{
													OFFSET 0 0 0
												}
											}
										}
									}
								}
							}
						}
						JOINT RightShoulder_virtual
						{
							OFFSET 0.000000 0.000000 0.000000
							CHANNELS 3 Xrotation Yrotation Zrotation
							JOINT RightShoulder
							{
								OFFSET -6.292450 5.785301 -0.669000
								CHANNELS 3 Xrotation Yrotation Zrotation
								JOINT RightShoulder_split
								{
									OFFSET -6.292450 5.785301 -0.669000
									CHANNELS 3 Xrotation Yrotation Zrotation
									JOINT RightArm
									{
										OFFSET -13.907140 -6.093903 1.965100
										CHANNELS 3 Xrotation Yrotation Zrotation
										JOINT RightForeArm
										{
											OFFSET -34.140198 0.000000 0.000000
											CHANNELS 3 Xrotation Yrotation Zrotation
											JOINT RightHand
											{
												OFFSET -40.960209 0.000000 0.000000
												CHANNELS 3 Xrotation Yrotation Zrotation
												End Site
												{
													OFFSET 0 0 0
												}
											}
										}
									}
								}
							}
						}
					}
				}
			}
		}
	}
}
MOTION
Frames: 6
Frame Time: 0.03333333
0.295693 113.888306 0.799812 0.000000 0.000000 0.000000 1.940148 1.928172 -2.649161 -30.738396 7.822067 6.862077 52.711322 -4.191092 -0.460068 6.345145 -0.062677 -1.757520 -8.204080 0.000004 0.000001 0.000000 0.000000 0.000000 1.940148 1.928172 -2.649161 -16.749330 -8.246217 4.512280 25.601159 2.249153 -4.301531 -11.348504 0.097019 -0.076946 -4.971782 0.000001 -0.000000 0.000000 0.000000 0.000000 1.940148 1.928172 -2.649161 6.223575 -1.002281 2.518779 2.498163 -2.419468 1.232352 0.000000 0.000000 0.000000 0.000000 0.000000 0.000000 2.471488 -2.375263 1.342052 -0.476783 2.129173 -0.237603 -3.192700 4.531154 -1.881902 0.000000 0.000000 0.000000 2.471488 -2.375263 1.342052 0.352375 -9.169222 -14.380745 0.000000 0.000000 0.000000 9.011952 -24.442288 -57.554603 0.000002 -11.061370 0.000000 0.000000 0.000000 0.000000 2.471488 -2.375263 1.342052 0.552466 4.135211 15.717227 0.000000 0.000000 0.000000 3.061867 28.096188 49.279856 -0.000000 23.795810 0.000022 0.000000 0.000000 0.000000 
1.657871 113.689949 2.291126 0.000000 0.000000 0.000000 1.781265 2.117583 -2.383671 -30.903935 7.040581 8.072800 52.007915 -3.295627 -0.303106 5.377180 0.514305 -2.609529 -7.629206 0.000000 0.000000 0.000000 0.000000 0.000000 1.781265 2.117583 -2.383671 -16.157852 -8.059596 3.301775 26.224709 2.075233 -4.082133 -12.414862 0.633095 0.697129 -4.747457 0.000000 0.000000 0.000000 0.000000 0.000000 1.781265 2.117583 -2.383671 6.407799 -0.241686 2.345772 2.528581 -1.613457 1.064342 0.000000 0.000000 0.000000 0.000000 0.000000 0.000000 2.545426 -1.578220 1.147881 -0.365332 1.971525 -0.237604 -3.183213 2.474958 -1.431030 0.000000 0.000000 0.000000 2.545426 -1.578220 1.147881 0.372029 -9.555643 -15.041970 0.000000 0.000000 0.000000 8.216914 -22.540972 -57.446720 -0.000000 -11.975297 -0.000004 0.000000 0.000000 0.000000 2.545426 -1.578220 1.147881 0.321545 4.755069 15.877632 0.000000 0.000000 0.000000 5.691781 26.887835 47.980723 -0.000000 30.206611 -0.000002 0.000000 0.000000 0.000000 
4.680108 113.437431 5.373928 0.000000 0.000000 0.000000 1.594266 2.392207 -1.706436 -30.271388 5.649564 10.761304 48.332307 -0.131991 0.092231 3.806587 1.709463 -5.537215 -6.744673 0.000001 0.000000 0.000000 0.000000 0.000000 1.594266 2.392207 -1.706436 -14.732472 -7.678797 0.560883 26.818927 2.222689 -3.508724 -14.185167 1.454079 2.244104 -4.268029 -0.000001 -0.000001 0.000000 0.000000 0.000000 1.594266 2.392207 -1.706436 6.768790 1.216494 1.837363 2.597820 0.014282 0.707129 0.000000 0.000000 0.000000 0.000000 0.000000 0.000000 2.699915 0.030977 0.735977 -0.187440 1.661603 -0.240756 -3.336268 -1.805328 -0.614703 0.000000 0.000000 0.000000 2.699915 0.030977 0.735977 0.351720 -10.465481 -16.222259 0.000000 0.000000 0.000000 6.640034 -18.590134 -57.376014 0.000003 -13.844612 0.000015 0.000000 0.000000 0.000000 2.699915 0.030977 0.735977 -0.150898 6.103866 16.004808 0.000000 0.000000 0.000000 9.788265 25.097634 45.794496 0.000015 40.905084 -0.000022 0.000000 0.000000 0.000000 
7.880631 113.414619 8.581642 0.000000 0.000000 0.000000 1.514422 2.471055 -0.965770 -28.646496 4.890452 13.555940 42.070345 3.576772 0.503395 3.089166 2.958176 -8.828147 -6.574095 0.000010 -0.000000 0.000000 0.000000 0.000000 1.514422 2.471055 -0.965770 -12.796705 -7.349477 -2.239752 26.341125 2.979338 -2.899587 -15.459390 1.924377 3.689245 -3.924549 0.000000 0.000000 0.000000 0.000000 0.000000 1.514422 2.471055 -0.965770 7.096139 2.625914 1.236733 2.686964 1.669191 0.346727 0.000000 0.000000 0.000000 0.000000 0.000000 0.000000 2.871594 1.666855 0.319725 -0.073542 1.368003 -0.267718 -3.693324 -6.121778 0.081252 0.000000 0.000000 0.000000 2.871594 1.666855 0.319725 0.278649 -11.485317 -17.514058 0.000000 0.000000 0.000000 5.346103 -14.579406 -57.118895 -0.000005 -15.638181 -0.000017 0.000000 0.000000 0.000000 2.871594 1.666855 0.319725 -0.633523 7.599395 16.012036 0.000000 0.000000 0.000000 12.969126 23.591610 43.739941 -0.000007 50.077349 0.000005 0.000000 0.000000 0.000000 
11.053858 113.537216 11.844002 0.000000 0.000000 0.000000 1.392299 2.240790 -0.328079 -26.665777 5.049605 16.065869 34.654846 6.355818 0.801990 3.688044 2.965042 -11.806671 -6.845657 0.000001 0.000002 0.000000 0.000000 0.000000 1.392299 2.240790 -0.328079 -10.323495 -7.147424 -4.786243 25.005777 3.905483 -2.416952 -16.741477 2.391594 5.163514 -3.684977 0.000001 0.000001 0.000000 0.000000 0.000000 1.392299 2.240790 -0.328079 7.446746 4.077392 0.715704 2.816004 3.361222 -0.001608 0.000000 0.000000 0.000000 0.000000 0.000000 0.000000 3.079896 3.339263 -0.085631 -0.011991 1.090642 -0.324609 -4.250754 -10.305634 0.695273 0.000000 0.000000 0.000000 3.079896 3.339263 -0.085631 0.189730 -12.394353 -19.005082 0.000000 0.000000 0.000000 4.134164 -10.665544 -56.607392 -0.000002 -17.237425 -0.000016 0.000000 0.000000 0.000000 3.079896 3.339263 -0.085631 -1.126994 9.145592 16.121015 0.000000 0.000000 0.000000 15.207432 22.085671 41.720257 -0.000000 57.962604 0.000012 0.000000 0.000000 0.000000 
14.145957 113.720566 15.066971 0.000000 0.000000 0.000000 1.257775 1.782626 0.060138 -24.969835 5.746978 18.370062 27.345419 8.049380 0.919263 5.062668 1.209930 -14.506502 -6.794746 -0.000003 -0.000002 0.000000 0.000000 0.000000 1.257775 1.782626 0.060138 -7.487978 -7.174496 -6.929042 22.859241 4.923622 -2.053924 -17.657333 2.849334 6.626448 -3.362951 0.000002 0.000000 0.000000 0.000000 0.000000 1.257775 1.782626 0.060138 7.753489 5.521611 0.427110 2.972754 5.059174 -0.324778 0.000000 0.000000 0.000000 0.000000 0.000000 0.000000 3.311785 5.017406 -0.465795 0.024626 0.823788 -0.395380 -4.904919 -14.220679 1.209517 0.000000 0.000000 0.000000 3.311785 5.017406 -0.465795 0.079489 -13.188644 -20.433144 0.000000 0.000000 0.000000 2.743186 -6.821726 -56.229153 0.000003 -18.602891 -0.000011 0.000000 0.000000 0.000000 3.311785 5.017406 -0.465795 -1.623628 10.689489 16.286806 0.000000 0.000000 0.000000 16.461497 20.545943 39.921660 0.000030 64.533840 -0.000022 0.000000 0.000000 0.000000 
